# xmcd
#
# Track frame offsets: 
#        151
#        13147
#        24645
#        34373
#        46853
#        58663
#        70040
#        82797
#        95099
#        107759
#        120502
#        132731
#        147336
#        161433
#        175873
#        189846
#        203753
#        218238
#        232187
#        245884
#        259420
#        273009
#        285898
#        300826
#        313402
#
# Disc length: 4338 seconds
#
# Revision: 4
# Processed by: cddbd v1.5.2PL0 Copyright (c) Steve Scherf et al.
# Submitted via: ExactAudioCopy v1.0b1
#
DISCID=6810f019
DTITLE=Furry Lewis - Furry's Blues: The Complete Vintage Recordings (1
DTITLE=927-1929)
DYEAR=2003
DGENRE=Blues
TTITLE0=Everybody's Blues
TTITLE1=Mr. Furry's Blues
TTITLE2=Sweet Papa Moan
TTITLE3=Rock Island Blues
TTITLE4=Jelly Roll
TTITLE5=Billy Lyons And Stock O'Lee
TTITLE6=Good Looking Girl Blues
TTITLE7=Why Don't You Come Home Blues
TTITLE8=Falling Down Blues
TTITLE9=Big Chief Blues
TTITLE10=Mean Old Bedbug Blues
TTITLE11=Furry's Blues
TTITLE12=I Will Turn Your Money Green (take 1)
TTITLE13=I Will Turn Your Money Green (take 2)
TTITLE14=Mistreatin' Mama
TTITLE15=Dry Land Blues
TTITLE16=Cannon Ball Blues
TTITLE17=Kassie Jones - Part 1
TTITLE18=Kassie Jones - Part 2
TTITLE19=Judge Harsh Blues (take 1)
TTITLE20=Judge Harsh Blues (take 2)
TTITLE21=John Henry (The Steel Driving Man) - 1
TTITLE22=John Henry (The Steel Driving Man) - 2
TTITLE23=Black Gypsy Blues
TTITLE24=Creeper's Blues
EXTD=Submitted 2/2/98\nJmccoy@efn.org
EXTT0=
EXTT1=
EXTT2=
EXTT3=
EXTT4=
EXTT5=
EXTT6=
EXTT7=
EXTT8=
EXTT9=
EXTT10=
EXTT11=
EXTT12=
EXTT13=
EXTT14=
EXTT15=
EXTT16=
EXTT17=
EXTT18=
EXTT19=
EXTT20=
EXTT21=
EXTT22=
EXTT23=
EXTT24=
PLAYORDER=
